<svg width="126" height="52" viewBox="0 0 126 52" fill="none" xmlns="http://www.w3.org/2000/svg">
<g clip-path="url(#clip0_391_1352)">
<path d="M125.667 22.9725V44.1903H111.754C111.754 44.1903 111.753 44.1932 111.751 44.1947C111.592 44.4614 110.715 45.382 109.384 45.7445C108.053 46.1069 106.175 46.4839 103.709 45.9968C101.442 45.5488 100.526 44.3744 100.394 44.1903H7.52984C3.74007 44.1903 0.666504 41.1167 0.666504 37.327V8.41223H111.108C119.148 8.41223 125.667 14.932 125.667 22.9725Z" fill="black"/>
<path d="M40.6492 38.5696V37.9984L43.8895 35.1394L43.2791 36.2064V23.8179L44.9189 26.4479L40.5347 22.7509V22.0651L46.9384 19.7774H47.9301V36.2456L47.3589 35.1785L50.5615 37.9998V38.5711H40.6507L40.6492 38.5696ZM45.6814 17.1851C44.7405 17.1851 43.9721 16.9053 43.3748 16.3471C42.7775 15.789 42.4788 15.0771 42.4788 14.213C42.4788 13.349 42.7775 12.6067 43.3748 12.0586C43.9721 11.5121 44.7405 11.2395 45.6814 11.2395C46.6224 11.2395 47.4212 11.5193 48.0069 12.0775C48.5912 12.6371 48.884 13.349 48.884 14.2116C48.884 15.0742 48.5912 15.7875 48.0069 16.3457C47.4227 16.9053 46.647 17.1837 45.6814 17.1837V17.1851Z" fill="white"/>
<path d="M64.3969 39.1798C61.6525 39.1798 59.2705 38.639 57.2495 37.5604C55.2284 36.4803 53.6728 34.9493 52.5797 32.9674C51.4865 30.9856 50.9399 28.6354 50.9399 25.9156C50.9399 23.8569 51.2835 21.9577 51.9693 20.2165C52.655 18.4767 53.6206 16.9631 54.866 15.6801C56.1114 14.397 57.5786 13.4053 59.269 12.7065C60.9595 12.0077 62.8196 11.6583 64.8536 11.6583C65.9468 11.6583 67.0588 11.7729 68.1896 12.0019C69.3205 12.231 70.4064 12.5427 71.4488 12.9356C72.4912 13.3299 73.406 13.8069 74.1932 14.3651L71.4111 19.206H70.6485L65.9975 13.069H70.0758V16.7283C69.0088 14.9247 67.2806 14.0215 64.8913 14.0215C63.2386 14.0215 61.7844 14.4927 60.5274 15.4321C59.269 16.3731 58.2716 17.6619 57.5351 19.3017C56.7971 20.9414 56.4303 22.8145 56.4303 24.924C56.4303 27.0334 56.8174 29.0849 57.5931 30.7753C58.3672 32.4658 59.4415 33.775 60.8145 34.7014C62.1875 35.6293 63.788 36.0932 65.6177 36.0932C67.1675 36.0932 68.5463 35.7699 69.7539 35.1218C70.9602 34.4738 72.0606 33.4894 73.0508 32.1671L74.4237 32.9297C73.4582 34.887 72.0925 36.4179 70.3252 37.5227C68.5593 38.6274 66.5832 39.1813 64.3969 39.1813V39.1798Z" fill="white"/>
<path d="M84.1807 39.0658C82.1727 39.0658 80.4199 38.6657 78.9194 37.8654C77.4203 37.0651 76.2445 35.9473 75.3935 34.5106C74.541 33.0753 74.1162 31.4167 74.1162 29.5363C74.1162 27.5544 74.5599 25.8132 75.45 24.3141C76.3388 22.815 77.5653 21.6335 79.1282 20.7694C80.691 19.9053 82.4757 19.4733 84.4837 19.4733C86.4917 19.4733 88.2503 19.8734 89.7639 20.6737C91.276 21.474 92.4518 22.5932 93.2898 24.0285C94.1292 25.4653 94.5482 27.1354 94.5482 29.0419C94.5482 30.9484 94.1031 32.7331 93.2144 34.2452C92.3242 35.7574 91.1049 36.939 89.5551 37.79C88.0053 38.641 86.2133 39.0673 84.1807 39.0673V39.0658ZM84.6374 36.8172C85.629 36.8172 86.4989 36.5316 87.2485 35.9589C87.998 35.3877 88.5823 34.5932 89.0013 33.5769C89.4203 32.5606 89.6305 31.379 89.6305 30.0321C89.6305 28.304 89.4014 26.8295 88.9447 25.6103C88.488 24.391 87.84 23.4443 87.0006 22.7701C86.1611 22.0974 85.1709 21.7596 84.027 21.7596C83.0354 21.7596 82.1655 22.0452 81.4159 22.6179C80.6664 23.1891 80.0821 23.9836 79.6617 24.9999C79.2427 26.0162 79.0325 27.1978 79.0325 28.5446C79.0325 30.2482 79.2615 31.7153 79.7182 32.9477C80.1764 34.18 80.823 35.134 81.6624 35.8067C82.5004 36.4808 83.492 36.8172 84.6359 36.8172H84.6374Z" fill="white"/>
<path d="M105.184 48.1383C103.176 48.1383 101.435 47.9281 99.9619 47.5091C98.4875 47.0901 97.3508 46.4986 96.5505 45.736C95.7502 44.9734 95.3501 44.0716 95.3501 43.0292C95.3501 42.1651 95.6676 41.4026 96.3026 40.7414C96.9376 40.0803 97.7379 39.6613 98.7035 39.483V38.2637H101.333V39.6744C100.317 40.2587 99.8082 41.2112 99.8082 42.5334C99.8082 43.6251 100.392 44.5095 101.561 45.1822C102.73 45.8549 104.292 46.1927 106.25 46.1927C108.029 46.1927 109.471 45.8621 110.576 45.201C111.681 44.5399 112.234 43.6758 112.234 42.6088C112.234 41.7186 111.904 41.0082 111.243 40.4747C110.582 39.9412 109.693 39.6744 108.574 39.6744H100.607C99.2341 39.6744 98.1294 39.2931 97.2899 38.5305C96.4505 37.7679 96.0315 36.7516 96.0315 35.4816C96.0315 34.6943 96.1968 33.9955 96.5273 33.3852C96.8579 32.7748 97.3146 32.2804 97.9003 31.8991C98.4846 31.5178 99.1457 31.3018 99.8822 31.2511L101.255 32.2804C100.695 32.2804 100.25 32.4211 99.9213 32.6994C99.5907 32.9792 99.4255 33.3736 99.4255 33.881C99.4255 34.4406 99.6545 34.8466 100.111 35.1003C100.569 35.354 101.267 35.4816 102.208 35.4816H109.145C111.279 35.4816 112.981 35.9832 114.253 36.9879C115.523 37.9926 116.159 39.3322 116.159 41.0097C116.159 42.4073 115.695 43.6396 114.767 44.7066C113.839 45.7737 112.549 46.6131 110.898 47.222C109.245 47.8324 107.34 48.1369 105.18 48.1369L105.184 48.1383ZM104.727 32.9662C103.101 32.9662 101.652 32.6864 100.382 32.1268C99.1109 31.5686 98.1265 30.7987 97.4276 29.8201C96.7288 28.8415 96.3794 27.7179 96.3794 26.4465C96.3794 25.0228 96.7477 23.7904 97.4842 22.7495C98.2207 21.7071 99.2631 20.901 100.61 20.3283C101.957 19.7571 103.557 19.47 105.413 19.47C107.04 19.47 108.482 19.7498 109.739 20.308C110.998 20.8676 111.982 21.636 112.694 22.6146C113.406 23.5932 113.761 24.7183 113.761 25.9883C113.761 27.412 113.393 28.6501 112.656 29.7056C111.918 30.761 110.87 31.5671 109.512 32.1268C108.152 32.6864 106.557 32.9662 104.727 32.9662ZM105.261 30.9466C106.429 30.9466 107.352 30.5914 108.024 29.8796C108.697 29.1677 109.035 28.1645 109.035 26.8683C109.035 25.2417 108.659 23.9456 107.91 22.98C107.16 22.0144 106.15 21.5316 104.88 21.5316C103.685 21.5316 102.757 21.8883 102.097 22.5987C101.436 23.3105 101.106 24.3138 101.106 25.6099C101.106 27.2105 101.487 28.5008 102.25 29.4794C103.012 30.458 104.016 30.9466 105.261 30.9466ZM106.672 21.0344L115.478 16.0413H116.163V20.6922L115.897 20.959L110.637 20.6545V21.0358H106.673L106.672 21.0344Z" fill="white"/>
<path d="M33.7465 36.5875V26.5056C33.7364 26.22 33.6784 25.9721 33.6117 25.7691C30.6686 20.2454 27.7255 14.7231 24.781 9.19936C23.466 8.07867 21.4059 6.74196 20.2837 6.65932C19.163 6.57523 15.5646 9.38494 15.5646 9.38494L6.14819 26.4505V36.9398C5.45229 37.4153 4.99561 38.2141 4.99561 39.1188C4.99561 40.5744 6.17574 41.7545 7.62989 41.7545C9.08403 41.7545 10.2656 40.5744 10.2656 39.1188C10.2656 38.2431 9.83793 37.4675 9.18117 36.9876V26.4505C9.19277 26.4171 9.20581 26.3853 9.21741 26.3519C9.22176 26.3389 9.23336 26.3084 9.24931 26.2664C9.24931 26.2649 9.25366 26.2562 9.25366 26.2533C9.39719 25.6879 9.64655 25.1805 9.96551 24.7281C11.5806 22.423 14.9441 21.5299 14.9441 21.5299L14.8484 21.6125C14.8557 21.6096 14.8629 21.6053 14.8702 21.6024V28.4831H11.8531V40.2888H14.8702V46.9245C14.1844 47.4001 13.735 48.1931 13.735 49.0905C13.735 50.5461 14.9151 51.7262 16.3707 51.7262C17.8263 51.7262 19.0064 50.5461 19.0064 49.0905C19.0064 48.2061 18.5715 47.4247 17.9031 46.9463V37.3936H14.8861V31.4914H17.9031V20.3874C18.8542 20.0612 19.6067 19.8713 19.9474 19.8873C20.3084 19.9047 20.9463 20.0743 21.7219 20.3324V34.3867H24.3156V41.9996C23.4979 42.4461 22.9426 43.316 22.9426 44.3134C22.9426 45.769 24.1228 46.9492 25.5784 46.9492C27.034 46.9492 28.2141 45.769 28.2141 44.3134C28.2141 43.5392 27.8806 42.8448 27.35 42.362V31.49H24.7563V21.4907C26.1278 22.0634 27.4588 22.6781 28.2982 23.1232C30.3453 24.2091 30.9093 26.2229 30.9093 26.2229V36.673C30.2148 37.1471 29.7596 37.9459 29.7596 38.8492C29.7596 39.7524 30.2148 40.5512 30.9093 41.0267C30.9296 41.0412 30.9513 41.0543 30.9731 41.0688C31.3833 41.3327 31.8719 41.4849 32.3953 41.4849C33.8509 41.4849 35.0296 40.3047 35.0296 38.8492C35.0296 37.8879 34.5149 37.0485 33.748 36.5889L33.7465 36.5875ZM19.7966 16.9819C18.615 16.7746 13.6074 19.0159 13.532 19.0493L17.4986 11.9076C18.1047 10.6028 19.7748 10.3201 19.7748 10.3201C21.6117 10.0069 22.8107 11.6655 22.8107 11.6655L26.8962 19.2783C22.4193 17.0486 19.7966 16.9819 19.7966 16.9819Z" fill="white"/>
<path d="M30.972 41.0672H30.9082V41.0251C30.9285 41.0396 30.9502 41.0527 30.972 41.0672Z" fill="white"/>
<path d="M33.7466 26.7V26.5043C33.7495 26.5724 33.7495 26.6362 33.7466 26.7Z" fill="white"/>
<path d="M16.687 7.19562L20.3419 0.568604L23.894 7.19562C23.894 7.19562 21.6352 5.553 20.2144 5.62259C18.7936 5.69218 16.716 7.14198 16.687 7.19562Z" fill="black"/>
</g>
<defs>
<clipPath id="clip0_391_1352">
<rect width="125" height="51.1561" fill="white" transform="translate(0.666504 0.569458)"/>
</clipPath>
</defs>
</svg>
