<svg width="44" height="45" viewBox="0 0 44 45" fill="none" xmlns="http://www.w3.org/2000/svg">
<path d="M10.9999 12.8436H20.1666C20.6528 12.8436 21.1191 13.0368 21.4629 13.3806C21.8068 13.7244 21.9999 14.1907 21.9999 14.677C21.9999 15.1632 21.8068 15.6295 21.4629 15.9733C21.1191 16.3171 20.6528 16.5103 20.1666 16.5103H10.9999C10.5137 16.5103 10.0474 16.3171 9.70355 15.9733C9.35973 15.6295 9.16658 15.1632 9.16658 14.677C9.16658 14.1907 9.35973 13.7244 9.70355 13.3806C10.0474 13.0368 10.5137 12.8436 10.9999 12.8436ZM23.8332 27.5103H32.9999C33.4861 27.5103 33.9525 27.7034 34.2963 28.0473C34.6401 28.3911 34.8332 28.8574 34.8332 29.3436C34.8332 29.8299 34.6401 30.2962 34.2963 30.64C33.9525 30.9838 33.4861 31.177 32.9999 31.177H23.8332C23.347 31.177 22.8807 30.9838 22.5369 30.64C22.1931 30.2962 21.9999 29.8299 21.9999 29.3436C21.9999 28.8574 22.1931 28.3911 22.5369 28.0473C22.8807 27.7034 23.347 27.5103 23.8332 27.5103ZM10.9999 20.177H32.9999C33.4861 20.177 33.9525 20.3701 34.2963 20.7139C34.6401 21.0577 34.8332 21.5241 34.8332 22.0103C34.8332 22.4965 34.6401 22.9628 34.2963 23.3067C33.9525 23.6505 33.4861 23.8436 32.9999 23.8436H10.9999C10.5137 23.8436 10.0474 23.6505 9.70355 23.3067C9.35973 22.9628 9.16658 22.4965 9.16658 22.0103C9.16658 21.5241 9.35973 21.0577 9.70355 20.7139C10.0474 20.3701 10.5137 20.177 10.9999 20.177Z" fill="black"/>
</svg>
