<svg width="180" height="74" viewBox="0 0 180 74" fill="none" xmlns="http://www.w3.org/2000/svg">
<path d="M180 32.5265V63.08H159.963C159.963 63.08 159.961 63.0821 159.961 63.0843C159.731 63.4685 158.467 64.7948 156.551 65.3179C154.634 65.841 151.932 66.3836 148.38 65.6804C145.109 65.0335 143.79 63.3404 143.605 63.08H39.5765C39.5765 61.9643 39.0946 60.9615 38.3305 60.2669V44.5885H34.5884V30.1692C36.5658 30.9962 38.4846 31.8818 39.6958 32.5221C42.6479 34.0893 43.4618 36.9914 43.4618 36.9914V52.062C42.4612 52.7479 41.8035 53.8983 41.8035 55.2007C41.8035 56.503 42.4612 57.6556 43.4618 58.3394V58.4001H43.553C44.1456 58.7822 44.8489 59.0014 45.6042 59.0014C47.7032 59.0014 49.4028 57.2996 49.4028 55.2007C49.4028 53.8158 48.6626 52.6046 47.5556 51.9404V37.6838C47.56 37.5927 47.56 37.4993 47.5556 37.4017C47.5404 36.9892 47.4579 36.6311 47.3603 36.3402C43.1145 28.3763 38.871 20.4101 34.6253 12.4462C34.2867 12.1575 33.9112 11.8579 33.5161 11.5605H159.034C170.612 11.5605 180 20.9484 180 32.5265Z" fill="white"/>
<path d="M49.4031 55.2007C49.4031 57.2996 47.7035 59.0014 45.6045 59.0014C44.8491 59.0014 44.1459 58.7822 43.5533 58.4001H43.4621V58.3394C42.4615 57.6556 41.8038 56.5052 41.8038 55.2007C41.8038 53.8961 42.4615 52.7479 43.4621 52.062V36.9914C43.4621 36.9914 42.6481 34.0893 39.6961 32.5221C38.4849 31.8818 36.5661 30.9962 34.5887 30.1692V44.5886H38.3308V60.2669C39.0949 60.9615 39.5767 61.9643 39.5767 63.08H9.88279C4.4237 63.08 0 58.6541 0 53.1972V11.5605H33.5164C33.9114 11.8579 34.287 12.1575 34.6256 12.4462C38.8713 20.4101 43.1148 28.3763 47.3605 36.3402C47.4582 36.6311 47.5407 36.9892 47.5559 37.4017C47.5602 37.4993 47.5602 37.5927 47.5559 37.6838V51.9404C48.6629 52.6046 49.4031 53.8158 49.4031 55.2007Z" fill="white"/>
<path d="M57.5734 54.9857V54.163L62.2402 50.0454L61.3611 51.5822V33.7419L63.7206 37.5297L57.4084 32.2051V31.2175L66.6292 27.9247H68.0575V51.6386L67.2348 50.1018L71.8452 54.163V54.9857H57.5734ZM64.8189 24.1934C63.4644 24.1934 62.3574 23.7919 61.4979 22.9866C60.6383 22.1813 60.2085 21.1567 60.2085 19.913C60.2085 18.6692 60.6383 17.5991 61.4979 16.8112C62.3574 16.0254 63.4644 15.6304 64.8189 15.6304C66.1734 15.6304 67.326 16.0341 68.1682 16.8372C69.0104 17.6425 69.4315 18.6671 69.4315 19.9108C69.4315 21.1546 69.0104 22.1813 68.1682 22.9844C67.326 23.7897 66.2103 24.1913 64.8189 24.1913V24.1934Z" fill="black"/>
<path d="M91.7716 55.8649C87.8189 55.8649 84.3893 55.0878 81.4785 53.5315C78.5699 51.9773 76.3277 49.772 74.754 46.9176C73.1803 44.0633 72.3945 40.6793 72.3945 36.7635C72.3945 33.7985 72.8894 31.0635 73.8771 28.5564C74.8647 26.0494 76.2561 23.8723 78.049 22.0251C79.8419 20.1779 81.9539 18.7496 84.3893 17.7425C86.8226 16.7353 89.5033 16.2339 92.4314 16.2339C94.0051 16.2339 95.6049 16.3989 97.235 16.7288C98.8629 17.0587 100.428 17.5059 101.928 18.0746C103.428 18.6433 104.745 19.3292 105.881 20.1323L101.874 27.1043H100.775L94.0789 18.2677H99.9526V23.538C98.4158 20.9398 95.9261 19.6417 92.4879 19.6417C90.1089 19.6417 88.0142 20.319 86.2018 21.6734C84.3893 23.0279 82.9545 24.8838 81.8931 27.2454C80.8317 29.6048 80.3021 32.3051 80.3021 35.3418C80.3021 38.3785 80.8599 41.3348 81.9756 43.7681C83.0913 46.2013 84.6368 48.0854 86.6142 49.4225C88.5895 50.7596 90.8968 51.426 93.5298 51.426C95.7612 51.426 97.7473 50.9593 99.4859 50.0259C101.222 49.0926 102.807 47.6752 104.235 45.7715L106.21 46.8699C104.819 49.6873 102.853 51.8927 100.309 53.4837C97.7646 55.0748 94.9189 55.8714 91.7737 55.8714L91.7716 55.8649Z" fill="black"/>
<path d="M120.259 55.7001C117.368 55.7001 114.843 55.1227 112.683 53.9702C110.524 52.8176 108.831 51.207 107.606 49.1405C106.38 47.0741 105.768 44.6865 105.768 41.9775C105.768 39.1232 106.408 36.6161 107.689 34.4564C108.969 32.2966 110.736 30.597 112.985 29.3511C115.236 28.1073 117.806 27.4844 120.697 27.4844C123.589 27.4844 126.122 28.0618 128.299 29.2143C130.476 30.3669 132.169 31.9775 133.376 34.044C134.583 36.1125 135.186 38.5176 135.186 41.2612C135.186 44.0049 134.546 46.5771 133.265 48.7542C131.984 50.9313 130.226 52.6331 127.995 53.8595C125.761 55.0858 123.183 55.698 120.254 55.698L120.259 55.7001ZM120.919 52.4616C122.347 52.4616 123.599 52.0492 124.678 51.2265C125.757 50.4038 126.599 49.2599 127.203 47.7948C127.806 46.3318 128.108 44.63 128.108 42.6895C128.108 40.202 127.778 38.0791 127.12 36.3231C126.46 34.5671 125.529 33.2039 124.32 32.2337C123.113 31.2656 121.685 30.7794 120.04 30.7794C118.611 30.7794 117.359 31.1918 116.28 32.0144C115.201 32.8371 114.359 33.981 113.756 35.4462C113.152 36.9113 112.851 38.6109 112.851 40.5514C112.851 43.0042 113.18 45.1162 113.838 46.8918C114.496 48.6674 115.429 50.0392 116.638 51.0094C117.845 51.9797 119.273 52.4638 120.919 52.4638V52.4616Z" fill="black"/>
<path d="M150.504 68.7652C147.613 68.7652 145.105 68.4635 142.983 67.86C140.86 67.2566 139.223 66.4057 138.071 65.3074C136.918 64.2091 136.341 62.9111 136.341 61.409C136.341 60.1652 136.799 59.0669 137.712 58.1162C138.626 57.1633 139.779 56.5598 141.17 56.3059V54.5499H144.958V56.5816C143.493 57.4238 142.761 58.7956 142.761 60.6992C142.761 62.2729 143.603 63.5449 145.286 64.5151C146.968 65.4832 149.219 65.9694 152.038 65.9694C154.6 65.9694 156.677 65.4941 158.268 64.5412C159.859 63.5883 160.656 62.3445 160.656 60.8077C160.656 59.5271 160.18 58.5025 159.227 57.7341C158.275 56.9658 156.994 56.5816 155.386 56.5816H143.914C141.939 56.5816 140.345 56.0324 139.138 54.9341C137.932 53.8357 137.328 52.3727 137.328 50.5429C137.328 49.4099 137.565 48.4027 138.042 47.5236C138.518 46.6445 139.175 45.9325 140.018 45.3834C140.86 44.8342 141.811 44.5238 142.872 44.45L144.847 45.9325C144.042 45.9325 143.402 46.1344 142.926 46.536C142.451 46.9397 142.212 47.5062 142.212 48.2377C142.212 49.043 142.542 49.6291 143.2 49.9938C143.857 50.3606 144.865 50.5429 146.219 50.5429H156.208C159.282 50.5429 161.735 51.2657 163.564 52.7114C165.394 54.157 166.308 56.0867 166.308 58.5025C166.308 60.5147 165.639 62.2903 164.305 63.827C162.967 65.3638 161.112 66.5707 158.733 67.4498C156.354 68.3289 153.608 68.7674 150.499 68.7674L150.504 68.7652ZM149.846 46.918C147.504 46.918 145.418 46.5164 143.588 45.7111C141.758 44.9058 140.341 43.7988 139.334 42.3901C138.327 40.9814 137.823 39.3621 137.823 37.5323C137.823 35.4832 138.353 33.7098 139.414 32.2078C140.476 30.7079 141.975 29.5444 143.916 28.7218C145.854 27.8991 148.162 27.4867 150.832 27.4867C153.174 27.4867 155.251 27.8904 157.061 28.6936C158.874 29.4989 160.291 30.6059 161.316 32.0146C162.34 33.4233 162.852 35.0426 162.852 36.8724C162.852 38.9215 162.321 40.7057 161.261 42.2251C160.2 43.7446 158.689 44.9058 156.733 45.7111C154.776 46.5164 152.479 46.918 149.844 46.918H149.846ZM150.615 44.0094C152.297 44.0094 153.625 43.4971 154.593 42.4726C155.561 41.4481 156.048 40.0024 156.048 38.1357C156.048 35.7936 155.507 33.9269 154.428 32.5377C153.349 31.1463 151.893 30.4517 150.065 30.4517C148.344 30.4517 147.009 30.964 146.058 31.9885C145.106 33.0131 144.63 34.4587 144.63 36.3254C144.63 38.6306 145.179 40.4887 146.278 41.8974C147.376 43.3061 148.822 44.0115 150.615 44.0115V44.0094ZM152.644 29.7376L165.325 22.5464H166.312V29.2427L165.928 29.6269L158.353 29.1885V29.7376H152.644Z" fill="black"/>
<path d="M47.556 51.9402V37.4014C47.5408 36.989 47.4584 36.6309 47.3607 36.34C43.115 28.376 38.8714 20.4099 34.6257 12.4459C34.2871 12.1572 33.9116 11.8577 33.5165 11.5603C31.7084 10.1972 29.4683 8.88179 28.1421 8.78194C27.0959 8.7038 24.5541 10.373 22.8914 11.5603C21.9841 12.2072 21.3372 12.7129 21.3372 12.7129L7.7579 37.3211V52.4481C6.75508 53.1319 6.09521 54.2844 6.09521 55.589C6.09521 57.688 7.79697 59.3897 9.89378 59.3897C11.9906 59.3897 13.6945 57.688 13.6945 55.589C13.6945 54.3279 13.0781 53.2078 12.1317 52.5176V37.3211C12.149 37.2734 12.1664 37.2256 12.1838 37.18C12.1903 37.1605 12.2055 37.1171 12.2294 37.0563C12.2294 37.0541 12.2337 37.0411 12.2359 37.0368C12.4442 36.2185 12.8024 35.487 13.2626 34.8358C15.5547 31.5625 20.291 30.2645 20.4386 30.2254L20.3062 30.3426C20.3062 30.3426 20.3257 30.3339 20.3366 30.3296V40.2514H15.9845V57.2755H20.3366V66.8458C19.3468 67.5317 18.6999 68.6756 18.6999 69.9693C18.6999 72.0682 20.4017 73.7678 22.5007 73.7678C24.5997 73.7678 26.3014 72.0682 26.3014 69.9693C26.3014 68.6929 25.6719 67.5664 24.7104 66.8761V53.1015H20.3583V44.5883H24.7104V28.5757C26.08 28.1069 27.1675 27.8312 27.6581 27.8551C28.179 27.879 29.0972 28.1242 30.2172 28.4976V48.7646H33.9572V59.7414C32.7764 60.3882 31.9754 61.6406 31.9754 63.0798C31.9754 65.1787 33.6772 66.8783 35.7761 66.8783C37.8751 66.8783 39.5769 65.1787 39.5769 63.0798C39.5769 61.9641 39.095 60.9612 38.3309 60.2666V44.5883H34.5888V30.169C36.5662 30.996 38.4851 31.8816 39.6963 32.5219C42.6483 34.0891 43.4623 36.9912 43.4623 36.9912V52.0617C42.4616 52.7477 41.8039 53.8981 41.8039 55.2004C41.8039 56.5028 42.4616 57.6554 43.4623 58.3391C43.4927 58.3608 43.523 58.3804 43.5534 58.3999C44.146 58.7819 44.8493 59.0012 45.6047 59.0012C47.7036 59.0012 49.4032 57.2994 49.4032 55.2004C49.4032 53.8156 48.663 52.6044 47.556 51.9402ZM27.4388 23.668C25.7349 23.3706 18.5154 26.6027 18.4069 26.6504L24.1265 16.3509C25.0012 14.4689 27.4106 14.063 27.4106 14.063C30.0587 13.6094 31.7887 16.0036 31.7887 16.0036L37.6798 26.9803C31.2222 23.7657 27.4388 23.668 27.4388 23.668Z" fill="black"/>
<path d="M43.5536 58.4001H43.4624V58.3394C43.4928 58.3611 43.5232 58.3806 43.5536 58.4001Z" fill="black"/>
<path d="M22.9543 9.55719L28.2268 0L33.3472 9.55719C33.3472 9.55719 30.0891 7.18906 28.0423 7.28891C25.9954 7.38876 22.9978 9.48122 22.9543 9.55719Z" fill="white"/>
</svg>
